<svg width="32" height="32" viewBox="0 0 32 32" fill="none" xmlns="http://www.w3.org/2000/svg">
<g clip-path="url(#clip0_45_5)">
<path d="M16.0004 7C15.3683 7 14.8576 7.50273 14.8576 8.125V8.8C12.2504 9.32031 10.2861 11.5914 10.2861 14.3125V14.9734C10.2861 16.6258 9.66827 18.2219 8.55399 19.4594L8.2897 19.7512C7.9897 20.0816 7.91827 20.5563 8.10041 20.9605C8.28256 21.3648 8.69327 21.625 9.14327 21.625H22.8576C23.3076 21.625 23.7147 21.3648 23.9004 20.9605C24.0861 20.5563 24.0111 20.0816 23.7111 19.7512L23.4468 19.4594C22.3326 18.2219 21.7147 16.6293 21.7147 14.9734V14.3125C21.7147 11.5914 19.7504 9.32031 17.1433 8.8V8.125C17.1433 7.50273 16.6326 7 16.0004 7ZM17.6183 24.3426C18.0468 23.9207 18.2861 23.3477 18.2861 22.75H16.0004H13.7147C13.7147 23.3477 13.954 23.9207 14.3826 24.3426C14.8111 24.7645 15.3933 25 16.0004 25C16.6076 25 17.1897 24.7645 17.6183 24.3426Z" fill="#5B6871"/>
</g>
<defs>
<clipPath id="clip0_45_5">
<rect width="16" height="18" fill="white" transform="translate(8 7)"/>
</clipPath>
</defs>
</svg>
